Coordinates
version=1
nRows=30
nColumns=38
inDegrees=no

Units are S.I. units (second, meters, Newtons, ...)
If the header above contains a line with 'inDegrees', this indicates whether rotational values are in degrees (yes) or radians (no).

endheader
time	pelvis_tilt	pelvis_list	pelvis_rotation	pelvis_tx	pelvis_ty	pelvis_tz	hip_flexion_r	hip_adduction_r	hip_rotation_r	knee_angle_r	ankle_angle_r	subtalar_angle_r	mtp_angle_r	hip_flexion_l	hip_adduction_l	hip_rotation_l	knee_angle_l	ankle_angle_l	subtalar_angle_l	mtp_angle_l	lumbar_extension	lumbar_bending	lumbar_rotation	arm_flex_r	arm_add_r	arm_rot_r	elbow_flex_r	pro_sup_r	wrist_flex_r	wrist_dev_r	arm_flex_l	arm_add_l	arm_rot_l	elbow_flex_l	pro_sup_l	wrist_flex_l	wrist_dev_l
1.2	-2.94128	1.49296	-1.56445	0.61663	0.926327	0.920431	0.468824	-0.181368	-0.416199	0.584991	0.0819414	0	0	-0.286524	-0.0885746	-0.0198453	0.647739	0.174457	0	0	-0.0919715	0.0170397	-0.275566	-0.231391	-0.0958291	-0.0328499	0.430811	1.17912	0	0	-0.0306588	-0.237139	0.402089	0.64943	0.936516	0	0
1.21	-3.02394	1.49661	-1.48614	0.618392	0.939164	0.921442	0.469801	-0.169592	-0.403888	0.60063	0.0726622	0	0	-0.257038	-0.0943116	-0.00941851	0.706752	0.132303	0	0	-0.0849934	0.0240925	-0.269481	-0.230671	-0.0977794	-0.0340455	0.424178	1.18867	0	0	-0.0406601	-0.235551	0.398868	0.653586	0.930601	0	0
1.22	-3.11435	1.50043	-1.39787	0.620069	0.951656	0.922466	0.466316	-0.158275	-0.399581	0.608051	0.0631182	0	0	-0.222694	-0.0997274	0.00376947	0.769471	0.0878661	0	0	-0.0773753	0.0307805	-0.266021	-0.229247	-0.100448	-0.0287816	0.418245	1.19035	0	0	-0.051287	-0.235482	0.397366	0.660564	0.919863	0	0
1.23	3.06864	1.50348	-1.30025	0.621866	0.963824	0.923514	0.458367	-0.146405	-0.400803	0.608115	0.0569242	0	0	-0.186362	-0.10478	0.0158016	0.833119	0.0424919	0	0	-0.0704087	0.0373888	-0.261841	-0.228093	-0.103482	-0.0228322	0.415815	1.1897	0	0	-0.0611963	-0.236022	0.396994	0.667682	0.910095	0	0
1.24	2.9479	1.50614	-1.18141	0.623609	0.975644	0.924491	0.447392	-0.133625	-0.40644	0.602149	0.055481	0	0	-0.146884	-0.110085	0.0280587	0.898061	-0.00496669	0	0	-0.0631156	0.0447712	-0.257623	-0.227525	-0.107166	-0.0161695	0.416706	1.18883	0	0	-0.0699774	-0.237022	0.398036	0.675247	0.898216	0	0
1.25	2.82696	1.5069	-1.06218	0.625235	0.987169	0.925557	0.43369	-0.120947	-0.414406	0.593779	0.0580805	0	0	-0.107701	-0.114777	0.0397252	0.960744	-0.0539057	0	0	-0.0574142	0.0523792	-0.252147	-0.227901	-0.111045	-0.0105998	0.421217	1.18632	0	0	-0.0764912	-0.23751	0.399541	0.681603	0.885538	0	0
1.26	2.71449	1.50577	-0.951391	0.626774	0.998398	0.926801	0.418819	-0.108456	-0.422777	0.585553	0.0628162	0	0	-0.0697075	-0.119203	0.0503145	1.01911	-0.104605	0	0	-0.053496	0.0602718	-0.245252	-0.228858	-0.115183	-0.00626846	0.42893	1.18337	0	0	-0.0807349	-0.237562	0.40183	0.684642	0.875161	0	0
1.27	2.62313	1.50275	-0.862204	0.628244	1.00939	0.928338	0.403042	-0.0958789	-0.429007	0.578285	0.0685824	0	0	-0.0345073	-0.122878	0.0598982	1.07161	-0.15587	0	0	-0.0518311	0.0682771	-0.236575	-0.22977	-0.119626	-0.0028361	0.438268	1.18112	0	0	-0.0829851	-0.237177	0.404207	0.68488	0.868666	0	0
1.28	2.55562	1.49789	-0.797203	0.629606	1.02014	0.930204	0.385475	-0.0822608	-0.431493	0.570108	0.0745552	0	0	-0.00251202	-0.125728	0.0690497	1.11964	-0.199494	0	0	-0.0523468	0.0764673	-0.227556	-0.232825	-0.131166	0.0406271	0.45701	1.10857	0	0	-0.0843484	-0.236098	0.405659	0.683988	0.859837	0	0
1.29	2.521	1.49306	-0.766465	0.630954	1.03072	0.932341	0.366634	-0.0689191	-0.428905	0.560426	0.0804602	0	0	0.0269377	-0.125874	0.0769363	1.16583	-0.220002	0	0	-0.0549834	0.0832336	-0.215792	-0.231464	-0.134785	0.0333463	0.464507	1.13255	0	0	-0.0839186	-0.232276	0.399467	0.67836	0.874815	0	0
1.3	2.52202	1.48982	-0.772548	0.632298	1.04124	0.934612	0.347147	-0.0588188	-0.424659	0.550833	0.086881	0	0	0.0546343	-0.122402	0.0824657	1.20996	-0.217101	0	0	-0.0583709	0.086352	-0.203321	-0.229641	-0.139797	0.037389	0.472963	1.13181	0	0	-0.0844312	-0.230767	0.397307	0.676587	0.876181	0	0
1.31	2.53959	1.48737	-0.796059	0.633745	1.05177	0.937003	0.326151	-0.0498504	-0.419497	0.538784	0.0926552	0	0	0.0808266	-0.11799	0.0851316	1.2499	-0.200044	0	0	-0.0621018	0.0872871	-0.190753	-0.227007	-0.144523	0.0447529	0.480013	1.13152	0	0	-0.0864542	-0.229946	0.393722	0.677272	0.87686	0	0
1.32	2.5928	1.487	-0.856742	0.636421	1.06204	0.93948	0.305722	-0.0417072	-0.411309	0.526554	0.0961535	0	0	0.108599	-0.122315	0.0892523	1.28213	-0.171541	0	0	-0.0670316	0.0822658	-0.176964	-0.223248	-0.14755	0.0544854	0.486338	1.1308	0	0	-0.0892302	-0.231315	0.389423	0.678848	0.877356	0	0
1.33	2.6303	1.48682	-0.901631	0.637966	1.07223	0.941939	0.284694	-0.0356825	-0.405627	0.511746	0.10019	0	0	0.134417	-0.115398	0.0878806	1.31248	-0.150562	0	0	-0.0704012	0.0796718	-0.164138	-0.219018	-0.152556	0.0642943	0.493065	1.12925	0	0	-0.0925815	-0.231355	0.385085	0.681023	0.877742	0	0
1.34	2.6687	1.48771	-0.947283	0.63953	1.08225	0.944298	0.264547	-0.0308804	-0.401314	0.496524	0.10385	0	0	0.161546	-0.107795	0.0860113	1.33857	-0.134038	0	0	-0.0728753	0.0760575	-0.152263	-0.214085	-0.15732	0.0728733	0.50008	1.12642	0	0	-0.0967547	-0.232021	0.380104	0.68447	0.877706	0	0
1.35	2.70146	1.48804	-0.987189	0.64112	1.09215	0.946608	0.243209	-0.0249041	-0.396693	0.478678	0.106656	0	0	0.188244	-0.101351	0.0839496	1.35998	-0.121412	0	0	-0.0753505	0.0728945	-0.142244	-0.208015	-0.162566	0.0841892	0.507635	1.11917	0	0	-0.10305	-0.232614	0.371545	0.690794	0.876644	0	0
1.36	2.73627	1.48872	-1.02956	0.642611	1.10202	0.948744	0.222396	-0.0196472	-0.392061	0.461077	0.109598	0	0	0.214695	-0.094848	0.0811776	1.37674	-0.112102	0	0	-0.0775143	0.0692251	-0.13306	-0.200996	-0.167925	0.0952552	0.515232	1.10887	0	0	-0.11026	-0.233261	0.362342	0.697999	0.874952	0	0
1.37	2.76291	1.48644	-1.06453	0.644398	1.11183	0.951089	0.195935	-0.00992177	-0.381296	0.435685	0.109102	0	0	0.237359	-0.091987	0.07693	1.38811	-0.10466	0	0	-0.0825825	0.0678374	-0.123478	-0.192846	-0.170961	0.0911608	0.520442	1.13524	0	0	-0.118042	-0.230933	0.342133	0.702894	0.895553	0	0
1.38	2.80017	1.48549	-1.11127	0.646144	1.12168	0.953169	0.172068	-0.00337373	-0.371339	0.414192	0.10967	0	0	0.259798	-0.0880465	0.070712	1.39503	-0.0989245	0	0	-0.0866255	0.0647143	-0.112659	-0.185928	-0.17565	0.097239	0.528586	1.12986	0	0	-0.125152	-0.230764	0.3316	0.708484	0.898662	0	0
1.39	2.84265	1.48356	-1.1625	0.647775	1.13135	0.955189	0.147048	0.00250445	-0.360649	0.392386	0.109873	0	0	0.280344	-0.0842137	0.064665	1.39767	-0.0936755	0	0	-0.0920593	0.061377	-0.102919	-0.178162	-0.180051	0.1032	0.536276	1.12288	0	0	-0.131889	-0.230638	0.32123	0.713679	0.901448	0	0
1.4	2.88949	1.48041	-1.21817	0.649408	1.14102	0.957119	0.120703	0.00791154	-0.348076	0.370117	0.109717	0	0	0.298317	-0.080699	0.057913	1.39589	-0.0873604	0	0	-0.0991078	0.0577694	-0.0935041	-0.169442	-0.184256	0.10871	0.543478	1.11539	0	0	-0.138389	-0.230366	0.310535	0.718647	0.904004	0	0
1.41	2.94159	1.47681	-1.27997	0.65103	1.15055	0.958908	0.0947532	0.0117093	-0.334466	0.34959	0.110058	0	0	0.314232	-0.0769598	0.0497886	1.39	-0.078021	0	0	-0.106838	0.053226	-0.0836549	-0.159878	-0.188229	0.113149	0.549762	1.11002	0	0	-0.144363	-0.230103	0.300463	0.72309	0.906211	0	0
1.42	2.99261	1.47324	-1.34039	0.652609	1.16004	0.960491	0.069948	0.0141663	-0.321021	0.331039	0.111182	0	0	0.329208	-0.0730477	0.0414651	1.38049	-0.0665236	0	0	-0.114339	0.0481681	-0.0745097	-0.14963	-0.19178	0.117107	0.554832	1.10529	0	0	-0.149733	-0.230074	0.291962	0.72599	0.908006	0	0
1.43	3.04407	1.46992	-1.40112	0.654119	1.16939	0.961868	0.0469506	0.0149216	-0.308932	0.315284	0.113326	0	0	0.343541	-0.06881	0.0327231	1.36747	-0.0537768	0	0	-0.121462	0.0424855	-0.065611	-0.139056	-0.194992	0.12136	0.559135	1.09921	0	0	-0.154096	-0.230079	0.285019	0.727658	0.908652	0	0
1.44	3.09592	1.46735	-1.46158	0.65544	1.17882	0.962932	0.0265093	0.0138527	-0.300502	0.303	0.117297	0	0	0.358044	-0.0642843	0.0238203	1.35116	-0.0404954	0	0	-0.127266	0.0362587	-0.0573948	-0.128604	-0.197962	0.125916	0.562829	1.09172	0	0	-0.158113	-0.230319	0.280613	0.728037	0.90796	0	0
1.45	3.12194	1.46055	-1.49688	0.657116	1.18821	0.964311	-0.00552347	0.0193955	-0.277568	0.273912	0.113048	0	0	0.365903	-0.0644154	0.0139846	1.32999	-0.0246038	0	0	-0.137656	0.0326734	-0.0488692	-0.115437	-0.197725	0.116199	0.560082	1.1279	0	0	-0.161457	-0.229234	0.272394	0.726739	0.913635	0	0
1.46	-3.12773	1.45608	-1.53954	0.65856	1.19746	0.965191	-0.0293658	0.0200981	-0.263419	0.256886	0.114125	0	0	0.375492	-0.0627422	0.00401169	1.30589	-0.00985393	0	0	-0.145516	0.02767	-0.0408169	-0.102945	-0.200036	0.120282	0.560569	1.12816	0	0	-0.164461	-0.228893	0.268691	0.725716	0.911675	0	0
1.47	-3.09966	1.45195	-1.57608	0.659885	1.2066	0.965866	-0.0522533	0.0206563	-0.249384	0.240636	0.115373	0	0	0.384399	-0.0618015	-0.00600993	1.27861	0.00347599	0	0	-0.152902	0.0230165	-0.0337038	-0.0899822	-0.202001	0.124501	0.560025	1.12919	0	0	-0.167199	-0.228493	0.266096	0.723843	0.909325	0	0
1.48	-3.07617	1.44823	-1.60704	0.661076	1.21571	0.96635	-0.0742682	0.021136	-0.235726	0.225156	0.116901	0	0	0.39273	-0.0618319	-0.016534	1.24824	0.0157402	0	0	-0.159684	0.0188096	-0.0278585	-0.0764271	-0.204066	0.130474	0.558108	1.13143	0	0	-0.169602	-0.228161	0.265075	0.720844	0.906773	0	0
1.49	-3.05547	1.44507	-1.6341	0.66213	1.2249	0.966626	-0.0950233	0.0212222	-0.223558	0.211136	0.1191	0	0	0.400068	-0.0624113	-0.0275858	1.21442	0.0271711	0	0	-0.165453	0.0149272	-0.0233996	-0.062595	-0.206025	0.136876	0.555029	1.13464	0	0	-0.171955	-0.227923	0.265484	0.716917	0.90415	0	0
